<svg id="Layer_1" enable-background="new 0 0 512.003 512.003" height="512" viewBox="0 0 512.003 512.003" width="512" xmlns="http://www.w3.org/2000/svg"><g><g><path d="m479.899 10.741h-315.075c11.311 0 21.428 7.035 25.366 17.638l16.091 49.828c5.346 14.391 19.078 23.94 34.43 23.94h236.739c14.945 0 27.06 12.115 27.06 27.061v-93.854c.002-13.538-11.074-24.613-24.611-24.613z" fill="#fec458"/><g><g><path d="m301.797 78.207-16.091-49.828c-3.937-10.603-14.055-17.638-25.366-17.638h-95.515c11.311 0 21.428 7.035 25.366 17.638l16.091 49.828c5.346 14.391 19.078 23.94 34.43 23.94h95.515c-15.352 0-29.084-9.549-34.43-23.94z" fill="#f9ab49"/></g></g><path d="m477.451 95.652h-230.244c-15.352 0-29.085-9.549-34.43-23.94l-16.091-43.333c-3.938-10.603-14.055-17.638-25.366-17.638h-136.752c-14.945 0-27.06 12.115-27.06 27.06v343.484c0 14.944 12.115 27.059 27.059 27.059h442.884c14.945 0 27.06-12.115 27.06-27.06v-258.571c.001-14.946-12.115-27.061-27.06-27.061z" fill="#ffe181"/><path d="m94.112 381.285v-343.484c0-14.945 12.115-27.06 27.06-27.06h-86.604c-14.945 0-27.06 12.115-27.06 27.06v343.484c0 14.944 12.115 27.059 27.059 27.059h86.604c-14.944 0-27.059-12.114-27.059-27.059z" fill="#fec458"/><path d="m404.059 251.524h-296.099c-17.711 0-32.202 14.491-32.202 32.202v185.356c0 17.711 14.491 32.202 32.202 32.202h296.099c17.711 0 32.202-14.491 32.202-32.202v-185.356c0-17.711-14.491-32.202-32.202-32.202z" fill="#9dc6fb"/><path d="m147.816 469.082v-185.356c0-17.711 14.491-32.202 32.202-32.202h-72.058c-17.711 0-32.202 14.491-32.202 32.202v185.356c0 17.711 14.491 32.202 32.202 32.202h72.057c-17.71 0-32.201-14.491-32.201-32.202z" fill="#80b4fb"/><g fill="#dfebfa"><path d="m154.498 421.761h52.314c5.77 0 9.039 6.924 9.039 13.078 0 6.155-3.27 13.079-9.039 13.079h-81.932c-6.155 0-8.655-3.27-8.655-7.886 0-3.078 1.154-6.924 3.27-10.578l54.237-95.974h-44.621c-5.77 0-9.039-6.155-9.039-13.079 0-6.347 2.693-13.079 9.039-13.079h74.24c5.77 0 8.655 3.27 8.655 7.886 0 3.078-1.154 6.732-3.27 10.579z"/><path d="m239.754 316.363c0-6.346 7.501-9.039 15.001-9.039 7.501 0 15.002 2.693 15.002 9.039v122.323c0 6.154-7.501 9.232-15.002 9.232s-15.001-3.078-15.001-9.232z"/><path d="m350.923 307.323h-39.813c-6.732 0-11.155 4.232-11.155 9.039v122.323c0 6.154 7.501 9.232 15.001 9.232 7.501 0 15.002-3.078 15.002-9.232v-36.831h19.041c26.542 0 47.314-17.022 47.314-49.333v-.962c0-32.311-20.002-44.236-45.39-44.236zm15.386 47.507c0 13.078-6.539 19.233-17.31 19.233h-19.041v-40.582h19.041c10.77 0 17.31 6.154 17.31 19.233z"/></g></g><g><path d="m479.891 3.23h-308.579-136.752c-19.057 0-34.56 15.503-34.56 34.56v343.484c0 19.057 15.503 34.56 34.559 34.56h33.692v53.238c0 21.892 17.81 39.701 39.701 39.701h130.55c4.143 0 7.5-3.357 7.5-7.5s-3.357-7.5-7.5-7.5h-130.55c-13.62 0-24.701-11.081-24.701-24.701 0-10.253 0-175.091 0-185.356 0-13.621 11.081-24.702 24.701-24.702h296.099c13.621 0 24.702 11.081 24.702 24.702v185.356c0 13.62-11.081 24.701-24.702 24.701h-130.549c-4.143 0-7.5 3.357-7.5 7.5s3.357 7.5 7.5 7.5h130.549c21.892 0 39.702-17.81 39.702-39.701v-53.238h33.69c19.057 0 34.56-15.504 34.56-34.561v-110.152c0-4.143-3.357-7.5-7.5-7.5s-7.5 3.357-7.5 7.5v110.152c0 10.786-8.774 19.561-19.56 19.561h-33.69v-117.119c0-21.892-17.811-39.702-39.702-39.702h-296.099c-21.892 0-39.701 17.811-39.701 39.702v117.118h-33.692c-10.784 0-19.559-8.774-19.559-19.56v-343.483c0-10.785 8.774-19.56 19.56-19.56h136.752c8.133 0 15.502 5.122 18.335 12.749l16.092 43.333c6.404 17.243 23.066 28.829 41.461 28.829h230.244c10.785 0 19.56 8.774 19.56 19.561v113.419c0 4.143 3.357 7.5 7.5 7.5s7.5-3.357 7.5-7.5c0-10.124 0-190.919 0-200.778-.001-17.708-14.406-32.113-32.113-32.113zm17.112 90.992c-5.811-3.984-12.652-6.081-19.56-6.081h-230.244c-12.087 0-23.151-7.614-27.399-19.052-5.43-14.622-12.529-33.74-16.091-43.333-.974-2.604-2.459-5.408-3.919-7.526h280.101c9.436 0 17.112 7.677 17.112 17.112z"/><path d="m108.717 440.021c0 9.347 6.342 15.386 16.155 15.386h81.933c10.353 0 16.539-10.463 16.539-20.579 0-10.115-6.187-20.577-16.539-20.577h-39.461l47.956-84.86c9.901-18.01.747-29.578-11.957-29.578h-74.24c-9.738 0-16.539 8.463-16.539 20.579 0 11.925 6.956 20.579 16.539 20.579h31.768l-47.874 84.714c-2.761 4.764-4.28 9.856-4.28 14.336zm17.299-6.887 54.237-95.974c1.313-2.322 1.293-5.167-.052-7.471-1.344-2.304-3.811-3.72-6.478-3.72l-44.6-.001c-.453-.366-1.561-2.229-1.561-5.578 0-3.443 1.104-5.341 1.402-5.57 0 0 .042-.009.137-.009h74.24c.537 0 .913.058 1.143.113.19 2.035-1.281 5.33-2.287 7.161l-54.237 95.974c-2.822 4.994.795 11.19 6.529 11.19h52.108c.651.573 1.745 2.827 1.745 5.577 0 2.751-1.094 5.006-1.746 5.579-86.603 0-82.127.048-82.871-.086-.141-2.086 1.089-5.111 2.291-7.185z"/><path d="m277.249 438.675v-122.323c0-9.894-9.043-16.54-22.502-16.54s-22.501 6.646-22.501 16.54v122.323c0 9.852 9.253 16.731 22.501 16.731 13.249.001 22.502-6.879 22.502-16.731zm-15-.189c-.689.713-3.422 1.921-7.502 1.921-4.079 0-6.811-1.208-7.501-1.921v-121.97c.644-.556 3.126-1.704 7.501-1.704s6.858 1.148 7.502 1.704z"/><path d="m337.45 438.675v-29.331h11.541c15.56 0 28.991-5.076 38.845-14.679 11.684-11.387 15.969-26.661 15.969-43.116 0-32.88-19.277-51.737-52.89-51.737h-39.813c-10.46 0-18.654 7.266-18.654 16.54v122.323c0 9.852 9.253 16.731 22.501 16.731 13.248.001 22.501-6.879 22.501-16.731zm-30.003-122.323c0-.424 1.124-1.54 3.654-1.54h39.813c26.272 0 37.89 13.16 37.89 37.699 0 25.804-15.256 41.833-39.813 41.833h-19.041c-4.143 0-7.5 3.357-7.5 7.5v36.642c-.689.713-3.422 1.921-7.502 1.921-4.079 0-6.811-1.208-7.501-1.921z"/><path d="m329.95 381.551h19.041c15.535 0 24.81-9.993 24.81-26.732v-2.116c0-16.739-9.274-26.732-24.81-26.732h-19.041c-4.143 0-7.5 3.357-7.5 7.5v40.581c0 4.142 3.358 7.499 7.5 7.499zm7.5-40.581h11.541c8.839 0 9.81 5.117 9.81 13.849 0 9.737-3.922 11.732-9.81 11.732h-11.541z"/></g></g></svg>